<mxfile host="app.diagrams.net" modified="2020-12-26T23:14:39.867Z" agent="5.0 (Macintosh; Intel Mac OS X 10_15_6) AppleWebKit/605.1.15 (KHTML, like Gecko) Version/14.0.2 Safari/605.1.15" etag="ki250CeqIO2ZxscENJwf" version="14.1.2" type="github">
  <diagram id="tAp-OK5lOTIRStpvpJNH" name="Page-1">
    <mxGraphModel dx="1229" dy="1369" grid="1" gridSize="10" guides="1" tooltips="1" connect="1" arrows="1" fold="1" page="1" pageScale="1" pageWidth="827" pageHeight="1169" math="0" shadow="0">
      <root>
        <mxCell id="0" />
        <mxCell id="1" parent="0" />
        <mxCell id="2kOh0GnKaoZjC8oCAU-o-4" value="" style="rounded=0;whiteSpace=wrap;html=1;" parent="1" vertex="1">
          <mxGeometry x="215" y="20" width="190" height="330" as="geometry" />
        </mxCell>
        <mxCell id="2kOh0GnKaoZjC8oCAU-o-3" value="" style="verticalLabelPosition=bottom;verticalAlign=top;html=1;shadow=0;dashed=0;strokeWidth=1;shape=mxgraph.android.phone2;strokeColor=#c0c0c0;" parent="1" vertex="1">
          <mxGeometry x="210" y="-10" width="200" height="390" as="geometry" />
        </mxCell>
        <mxCell id="2kOh0GnKaoZjC8oCAU-o-5" value="" style="rounded=0;whiteSpace=wrap;html=1;" parent="1" vertex="1">
          <mxGeometry x="485" y="20" width="190" height="330" as="geometry" />
        </mxCell>
        <mxCell id="2kOh0GnKaoZjC8oCAU-o-6" value="" style="verticalLabelPosition=bottom;verticalAlign=top;html=1;shadow=0;dashed=0;strokeWidth=1;shape=mxgraph.android.phone2;strokeColor=#c0c0c0;" parent="1" vertex="1">
          <mxGeometry x="480" y="-10" width="200" height="390" as="geometry" />
        </mxCell>
        <mxCell id="2kOh0GnKaoZjC8oCAU-o-7" value="search from" style="strokeWidth=1;html=1;shadow=0;dashed=0;shape=mxgraph.ios.iTextInput;strokeColor=#444444;buttonText=;fontSize=8;whiteSpace=wrap;align=left;" parent="1" vertex="1">
          <mxGeometry x="240" y="70" width="140" height="15" as="geometry" />
        </mxCell>
        <mxCell id="2kOh0GnKaoZjC8oCAU-o-8" value="search to" style="strokeWidth=1;html=1;shadow=0;dashed=0;shape=mxgraph.ios.iTextInput;strokeColor=#444444;buttonText=;fontSize=8;whiteSpace=wrap;align=left;" parent="1" vertex="1">
          <mxGeometry x="240" y="130" width="140" height="15" as="geometry" />
        </mxCell>
        <mxCell id="2kOh0GnKaoZjC8oCAU-o-14" value="" style="edgeStyle=orthogonalEdgeStyle;rounded=0;orthogonalLoop=1;jettySize=auto;html=1;" parent="1" source="2kOh0GnKaoZjC8oCAU-o-7" target="2kOh0GnKaoZjC8oCAU-o-6" edge="1">
          <mxGeometry relative="1" as="geometry" />
        </mxCell>
        <mxCell id="2kOh0GnKaoZjC8oCAU-o-15" value="" style="html=1;shadow=0;dashed=0;shape=mxgraph.bootstrap.rrect;rSize=5;strokeColor=#DFDFDF;html=1;whiteSpace=wrap;fillColor=#FFFFFF;fontColor=#000000;" parent="1" vertex="1">
          <mxGeometry x="220" y="222" width="176.00000000000023" height="120" as="geometry" />
        </mxCell>
        <mxCell id="2kOh0GnKaoZjC8oCAU-o-17" value="&lt;p style=&quot;line-height: 100%&quot;&gt;Worms -&amp;gt; Hamburg&amp;nbsp;&lt;br&gt;5 hours and 30 min&lt;/p&gt;" style="strokeColor=inherit;fillColor=inherit;gradientColor=inherit;fontColor=inherit;html=1;shadow=0;dashed=0;perimeter=none;whiteSpace=wrap;resizeWidth=1;align=left;spacing=10;" parent="2kOh0GnKaoZjC8oCAU-o-15" vertex="1">
          <mxGeometry width="176" height="30" relative="1" as="geometry">
            <mxPoint as="offset" />
          </mxGeometry>
        </mxCell>
        <mxCell id="2kOh0GnKaoZjC8oCAU-o-18" value="&lt;p style=&quot;line-height: 100%&quot;&gt;Mannheim -&amp;gt; Hamburg&amp;nbsp;&lt;br&gt;5 hours and 30 min&lt;/p&gt;" style="strokeColor=inherit;fillColor=inherit;gradientColor=inherit;fontColor=inherit;html=1;shadow=0;dashed=0;perimeter=none;whiteSpace=wrap;resizeWidth=1;align=left;spacing=10;" parent="2kOh0GnKaoZjC8oCAU-o-15" vertex="1">
          <mxGeometry width="176" height="30" relative="1" as="geometry">
            <mxPoint y="30" as="offset" />
          </mxGeometry>
        </mxCell>
        <mxCell id="uBkspF1C4MyCDrgNjVe--29" value="" style="html=1;verticalLabelPosition=bottom;align=center;labelBackgroundColor=#ffffff;verticalAlign=top;strokeWidth=1;strokeColor=#0080F0;shadow=0;dashed=0;shape=mxgraph.ios7.icons.location_2;" vertex="1" parent="2kOh0GnKaoZjC8oCAU-o-15">
          <mxGeometry x="160" y="5.75" width="14" height="12" as="geometry" />
        </mxCell>
        <mxCell id="uBkspF1C4MyCDrgNjVe--30" value="&lt;p style=&quot;line-height: 100%&quot;&gt;Heidelberg -&amp;gt; Hamburg&amp;nbsp;&lt;br&gt;5 hours and 30 min&lt;/p&gt;" style="strokeColor=inherit;fillColor=inherit;gradientColor=inherit;fontColor=inherit;html=1;shadow=0;dashed=0;perimeter=none;whiteSpace=wrap;resizeWidth=1;align=left;spacing=10;" vertex="1" parent="2kOh0GnKaoZjC8oCAU-o-15">
          <mxGeometry x="2.2737367544323206e-13" y="58" width="176" height="30" as="geometry" />
        </mxCell>
        <mxCell id="uBkspF1C4MyCDrgNjVe--31" value="&lt;p style=&quot;line-height: 100%&quot;&gt;Mannheim -&amp;gt;Heidelberg&amp;nbsp;&lt;br&gt;30 min&lt;/p&gt;" style="strokeColor=inherit;fillColor=inherit;gradientColor=inherit;fontColor=inherit;html=1;shadow=0;dashed=0;perimeter=none;whiteSpace=wrap;resizeWidth=1;align=left;spacing=10;" vertex="1" parent="2kOh0GnKaoZjC8oCAU-o-15">
          <mxGeometry x="2.2737367544323206e-13" y="88" width="176" height="30" as="geometry" />
        </mxCell>
        <mxCell id="uBkspF1C4MyCDrgNjVe--37" value="" style="html=1;verticalLabelPosition=bottom;align=center;labelBackgroundColor=#ffffff;verticalAlign=top;strokeWidth=1;strokeColor=#0080F0;shadow=0;dashed=0;shape=mxgraph.ios7.icons.share;" vertex="1" parent="2kOh0GnKaoZjC8oCAU-o-15">
          <mxGeometry x="140" y="5.25" width="10" height="12.5" as="geometry" />
        </mxCell>
        <mxCell id="uBkspF1C4MyCDrgNjVe--38" value="" style="html=1;verticalLabelPosition=bottom;align=center;labelBackgroundColor=#ffffff;verticalAlign=top;strokeWidth=1;strokeColor=#0080F0;shadow=0;dashed=0;shape=mxgraph.ios7.icons.share;" vertex="1" parent="2kOh0GnKaoZjC8oCAU-o-15">
          <mxGeometry x="140" y="38" width="10" height="12.5" as="geometry" />
        </mxCell>
        <mxCell id="uBkspF1C4MyCDrgNjVe--39" value="" style="html=1;verticalLabelPosition=bottom;align=center;labelBackgroundColor=#ffffff;verticalAlign=top;strokeWidth=1;strokeColor=#0080F0;shadow=0;dashed=0;shape=mxgraph.ios7.icons.share;" vertex="1" parent="2kOh0GnKaoZjC8oCAU-o-15">
          <mxGeometry x="140" y="66.75" width="10" height="12.5" as="geometry" />
        </mxCell>
        <mxCell id="uBkspF1C4MyCDrgNjVe--40" value="" style="html=1;verticalLabelPosition=bottom;align=center;labelBackgroundColor=#ffffff;verticalAlign=top;strokeWidth=1;strokeColor=#0080F0;shadow=0;dashed=0;shape=mxgraph.ios7.icons.share;" vertex="1" parent="2kOh0GnKaoZjC8oCAU-o-15">
          <mxGeometry x="140" y="96.75" width="10" height="12.5" as="geometry" />
        </mxCell>
        <mxCell id="2kOh0GnKaoZjC8oCAU-o-22" value="hei" style="strokeWidth=1;html=1;shadow=0;dashed=0;shape=mxgraph.ios.iTextInput;strokeColor=#444444;buttonText=;fontSize=8;whiteSpace=wrap;align=left;" parent="1" vertex="1">
          <mxGeometry x="510" y="40" width="140" height="15" as="geometry" />
        </mxCell>
        <mxCell id="2kOh0GnKaoZjC8oCAU-o-23" value="" style="html=1;shadow=0;dashed=0;shape=mxgraph.bootstrap.rrect;rSize=5;strokeColor=#DFDFDF;html=1;whiteSpace=wrap;fillColor=#FFFFFF;fontColor=#000000;" parent="1" vertex="1">
          <mxGeometry x="490" y="80" width="176" height="140" as="geometry" />
        </mxCell>
        <mxCell id="2kOh0GnKaoZjC8oCAU-o-24" value="Heidelberg" style="strokeColor=inherit;fillColor=inherit;gradientColor=inherit;fontColor=inherit;html=1;shadow=0;dashed=0;perimeter=none;whiteSpace=wrap;resizeWidth=1;align=left;spacing=10;" parent="2kOh0GnKaoZjC8oCAU-o-23" vertex="1">
          <mxGeometry width="176" height="40" relative="1" as="geometry">
            <mxPoint as="offset" />
          </mxGeometry>
        </mxCell>
        <mxCell id="2kOh0GnKaoZjC8oCAU-o-25" value="Heidelberg HDF" style="strokeColor=inherit;fillColor=inherit;gradientColor=inherit;fontColor=inherit;html=1;shadow=0;dashed=0;perimeter=none;whiteSpace=wrap;resizeWidth=1;align=left;spacing=10;" parent="2kOh0GnKaoZjC8oCAU-o-23" vertex="1">
          <mxGeometry width="176" height="40" relative="1" as="geometry">
            <mxPoint y="40" as="offset" />
          </mxGeometry>
        </mxCell>
        <mxCell id="2kOh0GnKaoZjC8oCAU-o-26" value="" style="strokeColor=inherit;fillColor=inherit;gradientColor=inherit;fontColor=inherit;html=1;shadow=0;dashed=0;perimeter=none;whiteSpace=wrap;resizeWidth=1;align=left;spacing=10;" parent="2kOh0GnKaoZjC8oCAU-o-23" vertex="1">
          <mxGeometry width="176" height="30" relative="1" as="geometry">
            <mxPoint y="90" as="offset" />
          </mxGeometry>
        </mxCell>
        <mxCell id="2kOh0GnKaoZjC8oCAU-o-27" value="Heilbronn" style="strokeColor=inherit;fillColor=inherit;gradientColor=inherit;fontColor=inherit;html=1;shadow=0;dashed=0;shape=mxgraph.bootstrap.bottomButton;rSize=5;perimeter=none;whiteSpace=wrap;resizeWidth=1;resizeHeight=0;align=left;spacing=10;" parent="2kOh0GnKaoZjC8oCAU-o-23" vertex="1">
          <mxGeometry y="1" width="176" height="39" relative="1" as="geometry">
            <mxPoint y="-60" as="offset" />
          </mxGeometry>
        </mxCell>
        <mxCell id="2kOh0GnKaoZjC8oCAU-o-29" value="" style="html=1;verticalLabelPosition=bottom;labelBackgroundColor=#ffffff;verticalAlign=top;shadow=0;dashed=0;strokeWidth=2;shape=mxgraph.ios7.misc.keyboard_(letters);" parent="1" vertex="1">
          <mxGeometry x="492.5" y="222" width="175" height="120" as="geometry" />
        </mxCell>
        <mxCell id="2kOh0GnKaoZjC8oCAU-o-31" value="Save" style="rounded=1;html=1;shadow=0;dashed=0;whiteSpace=wrap;fontSize=10;fillColor=#E6E6E6;align=center;strokeColor=#B3B3B3;fontColor=#333333;" parent="1" vertex="1">
          <mxGeometry x="257.25" y="190" width="105.5" height="16.88" as="geometry" />
        </mxCell>
        <mxCell id="2kOh0GnKaoZjC8oCAU-o-100" value="Today" style="rounded=1;arcSize=9;fillColor=#ffffff;align=left;spacingLeft=5;strokeColor=#0057D8;html=1;strokeWidth=2;fontColor=#253858;fontSize=12" parent="1" vertex="1">
          <mxGeometry x="-160" y="-335" width="320" height="33" as="geometry" />
        </mxCell>
        <mxCell id="2kOh0GnKaoZjC8oCAU-o-101" value="" style="shape=mxgraph.gmdl.calendar;fillColor=#253858;strokeColor=none" parent="2kOh0GnKaoZjC8oCAU-o-100" vertex="1">
          <mxGeometry x="1" y="0.5" width="18" height="18" relative="1" as="geometry">
            <mxPoint x="-29" y="-9" as="offset" />
          </mxGeometry>
        </mxCell>
        <mxCell id="2kOh0GnKaoZjC8oCAU-o-102" value="" style="shape=mxgraph.mockup.forms.rrect;rSize=5;strokeColor=#DFE1E5;fillColor=#ffffff;shadow=1" parent="1" vertex="1">
          <mxGeometry x="-160" y="-295" width="320" height="350" as="geometry" />
        </mxCell>
        <mxCell id="2kOh0GnKaoZjC8oCAU-o-103" value="November 2015" style="strokeColor=none;fillColor=none;fontColor=#253858;fontSize=16;fontStyle=1" parent="2kOh0GnKaoZjC8oCAU-o-102" vertex="1">
          <mxGeometry x="60" y="16" width="200" height="40" as="geometry" />
        </mxCell>
        <mxCell id="2kOh0GnKaoZjC8oCAU-o-104" value="&lt;" style="strokeColor=none;fillColor=none;fontColor=#253858;fontSize=19;fontStyle=1;" parent="2kOh0GnKaoZjC8oCAU-o-102" vertex="1">
          <mxGeometry x="16" y="16" width="50" height="40" as="geometry" />
        </mxCell>
        <mxCell id="2kOh0GnKaoZjC8oCAU-o-105" value="&gt;" style="strokeColor=none;fillColor=none;fontColor=#253858;fontSize=19;fontStyle=1;" parent="2kOh0GnKaoZjC8oCAU-o-102" vertex="1">
          <mxGeometry x="254" y="16" width="50" height="40" as="geometry" />
        </mxCell>
        <mxCell id="2kOh0GnKaoZjC8oCAU-o-106" value="SUN" style="strokeColor=none;fillColor=none;fontColor=#999999;fontSize=12;fontStyle=1" parent="2kOh0GnKaoZjC8oCAU-o-102" vertex="1">
          <mxGeometry x="20" y="56" width="40" height="40" as="geometry" />
        </mxCell>
        <mxCell id="2kOh0GnKaoZjC8oCAU-o-107" value="MON" style="strokeColor=none;fillColor=none;fontColor=#999999;fontSize=12;fontStyle=1" parent="2kOh0GnKaoZjC8oCAU-o-102" vertex="1">
          <mxGeometry x="60" y="56" width="40" height="40" as="geometry" />
        </mxCell>
        <mxCell id="2kOh0GnKaoZjC8oCAU-o-108" value="TUE" style="strokeColor=none;fillColor=none;fontColor=#999999;fontSize=12;fontStyle=1" parent="2kOh0GnKaoZjC8oCAU-o-102" vertex="1">
          <mxGeometry x="100" y="56" width="40" height="40" as="geometry" />
        </mxCell>
        <mxCell id="2kOh0GnKaoZjC8oCAU-o-109" value="WED" style="strokeColor=none;fillColor=none;fontColor=#999999;fontSize=12;fontStyle=1" parent="2kOh0GnKaoZjC8oCAU-o-102" vertex="1">
          <mxGeometry x="140" y="56" width="40" height="40" as="geometry" />
        </mxCell>
        <mxCell id="2kOh0GnKaoZjC8oCAU-o-110" value="THU" style="strokeColor=none;fillColor=none;fontColor=#999999;fontSize=12;fontStyle=1" parent="2kOh0GnKaoZjC8oCAU-o-102" vertex="1">
          <mxGeometry x="180" y="56" width="40" height="40" as="geometry" />
        </mxCell>
        <mxCell id="2kOh0GnKaoZjC8oCAU-o-111" value="FRI" style="strokeColor=none;fillColor=none;fontColor=#999999;fontSize=12;fontStyle=1" parent="2kOh0GnKaoZjC8oCAU-o-102" vertex="1">
          <mxGeometry x="220" y="56" width="40" height="40" as="geometry" />
        </mxCell>
        <mxCell id="2kOh0GnKaoZjC8oCAU-o-112" value="SAT" style="strokeColor=none;fillColor=none;fontColor=#999999;fontSize=12;fontStyle=1" parent="2kOh0GnKaoZjC8oCAU-o-102" vertex="1">
          <mxGeometry x="260" y="56" width="40" height="40" as="geometry" />
        </mxCell>
        <mxCell id="2kOh0GnKaoZjC8oCAU-o-113" value="31" style="strokeColor=none;fillColor=none;fontColor=#999999;fontSize=16" parent="2kOh0GnKaoZjC8oCAU-o-102" vertex="1">
          <mxGeometry x="20" y="96" width="40" height="40" as="geometry" />
        </mxCell>
        <mxCell id="2kOh0GnKaoZjC8oCAU-o-114" value="1" style="strokeColor=none;fillColor=none;fontColor=#000000;fontSize=16" parent="2kOh0GnKaoZjC8oCAU-o-102" vertex="1">
          <mxGeometry x="60" y="96" width="40" height="40" as="geometry" />
        </mxCell>
        <mxCell id="2kOh0GnKaoZjC8oCAU-o-115" value="2" style="strokeColor=none;fillColor=none;fontColor=#000000;fontSize=16" parent="2kOh0GnKaoZjC8oCAU-o-102" vertex="1">
          <mxGeometry x="100" y="96" width="40" height="40" as="geometry" />
        </mxCell>
        <mxCell id="2kOh0GnKaoZjC8oCAU-o-116" value="3" style="strokeColor=none;fillColor=none;fontColor=#000000;fontSize=16" parent="2kOh0GnKaoZjC8oCAU-o-102" vertex="1">
          <mxGeometry x="140" y="96" width="40" height="40" as="geometry" />
        </mxCell>
        <mxCell id="2kOh0GnKaoZjC8oCAU-o-117" value="4" style="strokeColor=none;fillColor=none;fontColor=#000000;fontSize=16" parent="2kOh0GnKaoZjC8oCAU-o-102" vertex="1">
          <mxGeometry x="180" y="96" width="40" height="40" as="geometry" />
        </mxCell>
        <mxCell id="2kOh0GnKaoZjC8oCAU-o-118" value="5" style="strokeColor=none;fillColor=none;fontColor=#000000;fontSize=16" parent="2kOh0GnKaoZjC8oCAU-o-102" vertex="1">
          <mxGeometry x="220" y="96" width="40" height="40" as="geometry" />
        </mxCell>
        <mxCell id="2kOh0GnKaoZjC8oCAU-o-119" value="6" style="strokeColor=none;fillColor=none;fontColor=#000000;fontSize=16" parent="2kOh0GnKaoZjC8oCAU-o-102" vertex="1">
          <mxGeometry x="260" y="96" width="40" height="40" as="geometry" />
        </mxCell>
        <mxCell id="2kOh0GnKaoZjC8oCAU-o-120" value="7" style="strokeColor=none;fillColor=none;fontColor=#000000;fontSize=16" parent="2kOh0GnKaoZjC8oCAU-o-102" vertex="1">
          <mxGeometry x="20" y="136" width="40" height="40" as="geometry" />
        </mxCell>
        <mxCell id="2kOh0GnKaoZjC8oCAU-o-121" value="8" style="strokeColor=none;fillColor=none;fontColor=#000000;fontSize=16" parent="2kOh0GnKaoZjC8oCAU-o-102" vertex="1">
          <mxGeometry x="60" y="136" width="40" height="40" as="geometry" />
        </mxCell>
        <mxCell id="2kOh0GnKaoZjC8oCAU-o-122" value="9" style="strokeColor=none;fillColor=none;fontColor=#000000;fontSize=16" parent="2kOh0GnKaoZjC8oCAU-o-102" vertex="1">
          <mxGeometry x="100" y="136" width="40" height="40" as="geometry" />
        </mxCell>
        <mxCell id="2kOh0GnKaoZjC8oCAU-o-123" value="10" style="strokeColor=none;fillColor=none;fontColor=#0057D8;fontSize=16;fontStyle=4" parent="2kOh0GnKaoZjC8oCAU-o-102" vertex="1">
          <mxGeometry x="140" y="136" width="40" height="40" as="geometry" />
        </mxCell>
        <mxCell id="2kOh0GnKaoZjC8oCAU-o-124" value="11" style="strokeColor=none;fillColor=#ECEDF0;fontColor=#000000;fontSize=16;rounded=1;arcSize=10" parent="2kOh0GnKaoZjC8oCAU-o-102" vertex="1">
          <mxGeometry x="180" y="136" width="40" height="40" as="geometry" />
        </mxCell>
        <mxCell id="2kOh0GnKaoZjC8oCAU-o-125" value="12" style="strokeColor=none;fillColor=none;fontColor=#000000;fontSize=16" parent="2kOh0GnKaoZjC8oCAU-o-102" vertex="1">
          <mxGeometry x="220" y="136" width="40" height="40" as="geometry" />
        </mxCell>
        <mxCell id="2kOh0GnKaoZjC8oCAU-o-126" value="13" style="strokeColor=none;fillColor=none;fontColor=#000000;fontSize=16" parent="2kOh0GnKaoZjC8oCAU-o-102" vertex="1">
          <mxGeometry x="260" y="136" width="40" height="40" as="geometry" />
        </mxCell>
        <mxCell id="2kOh0GnKaoZjC8oCAU-o-127" value="14" style="strokeColor=none;fillColor=none;fontColor=#000000;fontSize=16" parent="2kOh0GnKaoZjC8oCAU-o-102" vertex="1">
          <mxGeometry x="20" y="176" width="40" height="40" as="geometry" />
        </mxCell>
        <mxCell id="2kOh0GnKaoZjC8oCAU-o-128" value="15" style="strokeColor=none;fillColor=none;fontColor=#000000;fontSize=16" parent="2kOh0GnKaoZjC8oCAU-o-102" vertex="1">
          <mxGeometry x="60" y="176" width="40" height="40" as="geometry" />
        </mxCell>
        <mxCell id="2kOh0GnKaoZjC8oCAU-o-129" value="16" style="strokeColor=none;fillColor=none;fontColor=#000000;fontSize=16" parent="2kOh0GnKaoZjC8oCAU-o-102" vertex="1">
          <mxGeometry x="100" y="176" width="40" height="40" as="geometry" />
        </mxCell>
        <mxCell id="2kOh0GnKaoZjC8oCAU-o-130" value="17" style="strokeColor=none;fillColor=none;fontColor=#000000;fontSize=16" parent="2kOh0GnKaoZjC8oCAU-o-102" vertex="1">
          <mxGeometry x="140" y="176" width="40" height="40" as="geometry" />
        </mxCell>
        <mxCell id="2kOh0GnKaoZjC8oCAU-o-131" value="18" style="strokeColor=none;fillColor=none;fontColor=#000000;fontSize=16" parent="2kOh0GnKaoZjC8oCAU-o-102" vertex="1">
          <mxGeometry x="180" y="176" width="40" height="40" as="geometry" />
        </mxCell>
        <mxCell id="2kOh0GnKaoZjC8oCAU-o-132" value="19" style="strokeColor=none;fillColor=none;fontColor=#000000;fontSize=16" parent="2kOh0GnKaoZjC8oCAU-o-102" vertex="1">
          <mxGeometry x="220" y="176" width="40" height="40" as="geometry" />
        </mxCell>
        <mxCell id="2kOh0GnKaoZjC8oCAU-o-133" value="20" style="strokeColor=none;fillColor=none;fontColor=#000000;fontSize=16" parent="2kOh0GnKaoZjC8oCAU-o-102" vertex="1">
          <mxGeometry x="260" y="176" width="40" height="40" as="geometry" />
        </mxCell>
        <mxCell id="2kOh0GnKaoZjC8oCAU-o-134" value="21" style="strokeColor=none;fillColor=none;fontColor=#000000;fontSize=16" parent="2kOh0GnKaoZjC8oCAU-o-102" vertex="1">
          <mxGeometry x="20" y="216" width="40" height="40" as="geometry" />
        </mxCell>
        <mxCell id="2kOh0GnKaoZjC8oCAU-o-135" value="22" style="strokeColor=none;fillColor=none;fontColor=#000000;fontSize=16" parent="2kOh0GnKaoZjC8oCAU-o-102" vertex="1">
          <mxGeometry x="60" y="216" width="40" height="40" as="geometry" />
        </mxCell>
        <mxCell id="2kOh0GnKaoZjC8oCAU-o-136" value="23" style="strokeColor=none;fillColor=none;fontColor=#999999;fontSize=16" parent="2kOh0GnKaoZjC8oCAU-o-102" vertex="1">
          <mxGeometry x="100" y="216" width="40" height="40" as="geometry" />
        </mxCell>
        <mxCell id="2kOh0GnKaoZjC8oCAU-o-137" value="24" style="strokeColor=none;fillColor=none;fontColor=#000000;fontSize=16" parent="2kOh0GnKaoZjC8oCAU-o-102" vertex="1">
          <mxGeometry x="140" y="216" width="40" height="40" as="geometry" />
        </mxCell>
        <mxCell id="2kOh0GnKaoZjC8oCAU-o-138" value="25" style="strokeColor=none;fillColor=none;fontColor=#000000;fontSize=16" parent="2kOh0GnKaoZjC8oCAU-o-102" vertex="1">
          <mxGeometry x="180" y="216" width="40" height="40" as="geometry" />
        </mxCell>
        <mxCell id="2kOh0GnKaoZjC8oCAU-o-139" value="26" style="strokeColor=none;fillColor=none;fontColor=#000000;fontSize=16" parent="2kOh0GnKaoZjC8oCAU-o-102" vertex="1">
          <mxGeometry x="220" y="216" width="40" height="40" as="geometry" />
        </mxCell>
        <mxCell id="2kOh0GnKaoZjC8oCAU-o-140" value="27" style="strokeColor=none;fillColor=none;fontColor=#000000;fontSize=16" parent="2kOh0GnKaoZjC8oCAU-o-102" vertex="1">
          <mxGeometry x="260" y="216" width="40" height="40" as="geometry" />
        </mxCell>
        <mxCell id="2kOh0GnKaoZjC8oCAU-o-141" value="28" style="strokeColor=none;fillColor=none;fontColor=#000000;fontSize=16" parent="2kOh0GnKaoZjC8oCAU-o-102" vertex="1">
          <mxGeometry x="20" y="256" width="40" height="40" as="geometry" />
        </mxCell>
        <mxCell id="2kOh0GnKaoZjC8oCAU-o-142" value="29" style="strokeColor=none;fillColor=none;fontColor=#000000;fontSize=16" parent="2kOh0GnKaoZjC8oCAU-o-102" vertex="1">
          <mxGeometry x="60" y="256" width="40" height="40" as="geometry" />
        </mxCell>
        <mxCell id="2kOh0GnKaoZjC8oCAU-o-143" value="30" style="strokeColor=none;fillColor=none;fontColor=#000000;fontSize=16" parent="2kOh0GnKaoZjC8oCAU-o-102" vertex="1">
          <mxGeometry x="100" y="256" width="40" height="40" as="geometry" />
        </mxCell>
        <mxCell id="2kOh0GnKaoZjC8oCAU-o-144" value="1" style="strokeColor=none;fillColor=none;fontColor=#999999;fontSize=16" parent="2kOh0GnKaoZjC8oCAU-o-102" vertex="1">
          <mxGeometry x="140" y="256" width="40" height="40" as="geometry" />
        </mxCell>
        <mxCell id="2kOh0GnKaoZjC8oCAU-o-145" value="2" style="strokeColor=none;fillColor=none;fontColor=#999999;fontSize=16" parent="2kOh0GnKaoZjC8oCAU-o-102" vertex="1">
          <mxGeometry x="180" y="256" width="40" height="40" as="geometry" />
        </mxCell>
        <mxCell id="2kOh0GnKaoZjC8oCAU-o-146" value="3" style="strokeColor=none;fillColor=none;fontColor=#999999;fontSize=16" parent="2kOh0GnKaoZjC8oCAU-o-102" vertex="1">
          <mxGeometry x="220" y="256" width="40" height="40" as="geometry" />
        </mxCell>
        <mxCell id="2kOh0GnKaoZjC8oCAU-o-147" value="4" style="strokeColor=none;fillColor=none;fontColor=#999999;fontSize=16" parent="2kOh0GnKaoZjC8oCAU-o-102" vertex="1">
          <mxGeometry x="260" y="256" width="40" height="40" as="geometry" />
        </mxCell>
        <mxCell id="2kOh0GnKaoZjC8oCAU-o-148" value="5" style="strokeColor=none;fillColor=none;fontColor=#999999;fontSize=16" parent="2kOh0GnKaoZjC8oCAU-o-102" vertex="1">
          <mxGeometry x="20" y="296" width="40" height="40" as="geometry" />
        </mxCell>
        <mxCell id="2kOh0GnKaoZjC8oCAU-o-149" value="6" style="strokeColor=none;fillColor=none;fontColor=#999999;fontSize=16" parent="2kOh0GnKaoZjC8oCAU-o-102" vertex="1">
          <mxGeometry x="60" y="296" width="40" height="40" as="geometry" />
        </mxCell>
        <mxCell id="2kOh0GnKaoZjC8oCAU-o-150" value="7" style="strokeColor=none;fillColor=none;fontColor=#999999;fontSize=16" parent="2kOh0GnKaoZjC8oCAU-o-102" vertex="1">
          <mxGeometry x="100" y="296" width="40" height="40" as="geometry" />
        </mxCell>
        <mxCell id="2kOh0GnKaoZjC8oCAU-o-151" value="8" style="strokeColor=none;fillColor=none;fontColor=#999999;fontSize=16" parent="2kOh0GnKaoZjC8oCAU-o-102" vertex="1">
          <mxGeometry x="140" y="296" width="40" height="40" as="geometry" />
        </mxCell>
        <mxCell id="2kOh0GnKaoZjC8oCAU-o-152" value="9" style="strokeColor=none;fillColor=none;fontColor=#999999;fontSize=16" parent="2kOh0GnKaoZjC8oCAU-o-102" vertex="1">
          <mxGeometry x="180" y="296" width="40" height="40" as="geometry" />
        </mxCell>
        <mxCell id="2kOh0GnKaoZjC8oCAU-o-153" value="10" style="strokeColor=none;fillColor=none;fontColor=#999999;fontSize=16" parent="2kOh0GnKaoZjC8oCAU-o-102" vertex="1">
          <mxGeometry x="220" y="296" width="40" height="40" as="geometry" />
        </mxCell>
        <mxCell id="2kOh0GnKaoZjC8oCAU-o-154" value="11" style="strokeColor=none;fillColor=none;fontColor=#999999;fontSize=16" parent="2kOh0GnKaoZjC8oCAU-o-102" vertex="1">
          <mxGeometry x="260" y="296" width="40" height="40" as="geometry" />
        </mxCell>
        <mxCell id="2kOh0GnKaoZjC8oCAU-o-156" value="" style="edgeStyle=orthogonalEdgeStyle;rounded=0;orthogonalLoop=1;jettySize=auto;html=1;exitX=0.473;exitY=1.012;exitDx=0;exitDy=0;exitPerimeter=0;entryX=0;entryY=0.5;entryDx=0;entryDy=0;endArrow=none;endFill=0;startArrow=classic;startFill=1;" parent="1" source="2kOh0GnKaoZjC8oCAU-o-102" target="2kOh0GnKaoZjC8oCAU-o-157" edge="1">
          <mxGeometry relative="1" as="geometry">
            <mxPoint x="390" y="87.52941176470608" as="sourcePoint" />
            <mxPoint x="490" y="195.0588235294117" as="targetPoint" />
            <Array as="points">
              <mxPoint x="-9" y="98" />
              <mxPoint x="-9" y="98" />
            </Array>
          </mxGeometry>
        </mxCell>
        <mxCell id="2kOh0GnKaoZjC8oCAU-o-157" value="Date&amp;nbsp;From" style="rounded=1;html=1;shadow=0;dashed=0;whiteSpace=wrap;fontSize=10;fillColor=#E6E6E6;align=center;strokeColor=#B3B3B3;fontColor=#333333;" parent="1" vertex="1">
          <mxGeometry x="250" y="90" width="105.5" height="16.88" as="geometry" />
        </mxCell>
        <mxCell id="2kOh0GnKaoZjC8oCAU-o-158" value="Date to" style="rounded=1;html=1;shadow=0;dashed=0;whiteSpace=wrap;fontSize=10;fillColor=#E6E6E6;align=center;strokeColor=#B3B3B3;fontColor=#333333;" parent="1" vertex="1">
          <mxGeometry x="257.25" y="150" width="105.5" height="16.88" as="geometry" />
        </mxCell>
        <mxCell id="2kOh0GnKaoZjC8oCAU-o-168" value="" style="verticalLabelPosition=bottom;shadow=0;dashed=0;align=center;html=1;verticalAlign=top;strokeWidth=1;shape=mxgraph.mockup.misc.map;fillColor=#BABABA;gradientColor=none;" parent="1" vertex="1">
          <mxGeometry x="-10" y="270" width="170" height="160" as="geometry" />
        </mxCell>
        <mxCell id="2kOh0GnKaoZjC8oCAU-o-169" value="" style="edgeStyle=orthogonalEdgeStyle;rounded=0;orthogonalLoop=1;jettySize=auto;html=1;exitX=0.38;exitY=-0.002;exitDx=0;exitDy=0;exitPerimeter=0;endArrow=none;endFill=0;startArrow=classic;startFill=1;" parent="1" source="2kOh0GnKaoZjC8oCAU-o-168" edge="1">
          <mxGeometry relative="1" as="geometry">
            <mxPoint x="90.01000000000015" y="-87.3000000000001" as="sourcePoint" />
            <mxPoint x="220" y="237" as="targetPoint" />
            <Array as="points">
              <mxPoint x="55" y="237" />
            </Array>
          </mxGeometry>
        </mxCell>
        <mxCell id="uBkspF1C4MyCDrgNjVe--1" value="" style="rounded=0;whiteSpace=wrap;html=1;" vertex="1" parent="1">
          <mxGeometry x="220" y="530" width="190" height="330" as="geometry" />
        </mxCell>
        <mxCell id="uBkspF1C4MyCDrgNjVe--2" value="" style="verticalLabelPosition=bottom;verticalAlign=top;html=1;shadow=0;dashed=0;strokeWidth=1;shape=mxgraph.android.phone2;strokeColor=#c0c0c0;" vertex="1" parent="1">
          <mxGeometry x="215" y="500" width="200" height="390" as="geometry" />
        </mxCell>
        <mxCell id="uBkspF1C4MyCDrgNjVe--3" value="Heidelberg" style="strokeWidth=1;html=1;shadow=0;dashed=0;shape=mxgraph.ios.iTextInput;strokeColor=#444444;buttonText=;fontSize=8;whiteSpace=wrap;align=left;" vertex="1" parent="1">
          <mxGeometry x="245" y="580" width="140" height="15" as="geometry" />
        </mxCell>
        <mxCell id="uBkspF1C4MyCDrgNjVe--4" value="Mannheim" style="strokeWidth=1;html=1;shadow=0;dashed=0;shape=mxgraph.ios.iTextInput;strokeColor=#444444;buttonText=;fontSize=8;whiteSpace=wrap;align=left;" vertex="1" parent="1">
          <mxGeometry x="245" y="640" width="140" height="15" as="geometry" />
        </mxCell>
        <mxCell id="uBkspF1C4MyCDrgNjVe--5" value="" style="html=1;shadow=0;dashed=0;shape=mxgraph.bootstrap.rrect;rSize=5;strokeColor=#DFDFDF;html=1;whiteSpace=wrap;fillColor=#FFFFFF;fontColor=#000000;" vertex="1" parent="1">
          <mxGeometry x="225" y="730" width="176" height="120" as="geometry" />
        </mxCell>
        <mxCell id="uBkspF1C4MyCDrgNjVe--7" value="Worms -&amp;gt; Hamburg&amp;nbsp;&lt;br&gt;5 hours and 30 min" style="strokeColor=inherit;fillColor=inherit;gradientColor=inherit;fontColor=inherit;html=1;shadow=0;dashed=0;perimeter=none;whiteSpace=wrap;resizeWidth=1;align=left;spacing=10;" vertex="1" parent="uBkspF1C4MyCDrgNjVe--5">
          <mxGeometry width="176" height="30" relative="1" as="geometry">
            <mxPoint y="60" as="offset" />
          </mxGeometry>
        </mxCell>
        <mxCell id="uBkspF1C4MyCDrgNjVe--8" value="" style="strokeColor=inherit;fillColor=inherit;gradientColor=inherit;fontColor=inherit;html=1;shadow=0;dashed=0;perimeter=none;whiteSpace=wrap;resizeWidth=1;align=left;spacing=10;" vertex="1" parent="uBkspF1C4MyCDrgNjVe--5">
          <mxGeometry width="176" height="30" relative="1" as="geometry">
            <mxPoint y="90" as="offset" />
          </mxGeometry>
        </mxCell>
        <mxCell id="uBkspF1C4MyCDrgNjVe--21" value="Worms -&amp;gt; Hamburg&amp;nbsp;&lt;br&gt;5 hours and 30 min" style="strokeColor=inherit;fillColor=inherit;gradientColor=inherit;fontColor=inherit;html=1;shadow=0;dashed=0;perimeter=none;whiteSpace=wrap;resizeWidth=1;align=left;spacing=10;" vertex="1" parent="uBkspF1C4MyCDrgNjVe--5">
          <mxGeometry y="90" width="176" height="30" as="geometry" />
        </mxCell>
        <mxCell id="uBkspF1C4MyCDrgNjVe--22" value="Worms -&amp;gt; Hamburg&amp;nbsp;&lt;br&gt;5 hours and 30 min" style="strokeColor=inherit;fillColor=inherit;gradientColor=inherit;fontColor=inherit;html=1;shadow=0;dashed=0;perimeter=none;whiteSpace=wrap;resizeWidth=1;align=left;spacing=10;" vertex="1" parent="uBkspF1C4MyCDrgNjVe--5">
          <mxGeometry y="30" width="176" height="30" as="geometry" />
        </mxCell>
        <mxCell id="uBkspF1C4MyCDrgNjVe--23" value="Mannheim -&amp;gt; Heidelberg&amp;nbsp;&lt;br&gt;5 hours and 30 min" style="strokeColor=inherit;fillColor=inherit;gradientColor=inherit;fontColor=inherit;html=1;shadow=0;dashed=0;perimeter=none;whiteSpace=wrap;resizeWidth=1;align=left;spacing=10;" vertex="1" parent="uBkspF1C4MyCDrgNjVe--5">
          <mxGeometry width="176" height="30" as="geometry" />
        </mxCell>
        <mxCell id="uBkspF1C4MyCDrgNjVe--10" value="Save" style="rounded=1;html=1;shadow=0;dashed=0;whiteSpace=wrap;fontSize=10;fillColor=#E6E6E6;align=center;strokeColor=#B3B3B3;fontColor=#333333;" vertex="1" parent="1">
          <mxGeometry x="262.25" y="700" width="105.5" height="16.88" as="geometry" />
        </mxCell>
        <mxCell id="uBkspF1C4MyCDrgNjVe--11" value="1:30PM &amp;nbsp;22.12.2020" style="rounded=1;html=1;shadow=0;dashed=0;whiteSpace=wrap;fontSize=10;fillColor=#E6E6E6;align=center;strokeColor=#B3B3B3;fontColor=#333333;" vertex="1" parent="1">
          <mxGeometry x="255" y="600" width="105.5" height="16.88" as="geometry" />
        </mxCell>
        <mxCell id="uBkspF1C4MyCDrgNjVe--12" value="2:00PM 22.12.2020" style="rounded=1;html=1;shadow=0;dashed=0;whiteSpace=wrap;fontSize=10;fillColor=#E6E6E6;align=center;strokeColor=#B3B3B3;fontColor=#333333;" vertex="1" parent="1">
          <mxGeometry x="262.25" y="660" width="105.5" height="16.88" as="geometry" />
        </mxCell>
        <mxCell id="uBkspF1C4MyCDrgNjVe--25" value="Hier wird die zeit ausgerechnet und dargestellt" style="rounded=1;whiteSpace=wrap;html=1;dashed=1;" vertex="1" parent="1">
          <mxGeometry x="15" y="128.44000000000005" width="120" height="60" as="geometry" />
        </mxCell>
        <mxCell id="uBkspF1C4MyCDrgNjVe--27" value="" style="endArrow=none;html=1;entryX=1;entryY=0.5;entryDx=0;entryDy=0;exitX=0;exitY=0.5;exitDx=0;exitDy=0;dashed=1;endFill=0;" edge="1" parent="1" source="2kOh0GnKaoZjC8oCAU-o-158">
          <mxGeometry width="50" height="50" relative="1" as="geometry">
            <mxPoint x="212.25" y="158.24" as="sourcePoint" />
            <mxPoint x="135" y="158.24" as="targetPoint" />
          </mxGeometry>
        </mxCell>
        <mxCell id="uBkspF1C4MyCDrgNjVe--34" value="" style="shape=image;html=1;verticalAlign=top;verticalLabelPosition=bottom;labelBackgroundColor=#ffffff;imageAspect=0;aspect=fixed;image=https://cdn1.iconfinder.com/data/icons/maps-and-navigation-free/32/Maps_Maps_Navigation_Route_Pin_Location-20-128.png;dashed=1;" vertex="1" parent="1">
          <mxGeometry x="30" y="310" width="60" height="60" as="geometry" />
        </mxCell>
        <mxCell id="uBkspF1C4MyCDrgNjVe--35" value="Start-route ist in deine nähe" style="rounded=1;whiteSpace=wrap;html=1;dashed=1;" vertex="1" parent="1">
          <mxGeometry x="380" y="390" width="120" height="30" as="geometry" />
        </mxCell>
        <mxCell id="uBkspF1C4MyCDrgNjVe--36" value="" style="endArrow=none;html=1;exitX=0.5;exitY=0;exitDx=0;exitDy=0;dashed=1;endFill=0;entryX=1.01;entryY=0.5;entryDx=0;entryDy=0;entryPerimeter=0;" edge="1" parent="1" source="uBkspF1C4MyCDrgNjVe--35" target="uBkspF1C4MyCDrgNjVe--29">
          <mxGeometry width="50" height="50" relative="1" as="geometry">
            <mxPoint x="510" y="240.19999999999982" as="sourcePoint" />
            <mxPoint x="400" y="240" as="targetPoint" />
            <Array as="points">
              <mxPoint x="440" y="234" />
            </Array>
          </mxGeometry>
        </mxCell>
        <mxCell id="uBkspF1C4MyCDrgNjVe--41" value="Route Teilen" style="rounded=1;whiteSpace=wrap;html=1;dashed=1;" vertex="1" parent="1">
          <mxGeometry x="250" y="390" width="120" height="30" as="geometry" />
        </mxCell>
        <mxCell id="uBkspF1C4MyCDrgNjVe--42" value="" style="endArrow=none;html=1;dashed=1;endFill=0;entryX=-0.061;entryY=1.087;entryDx=0;entryDy=0;entryPerimeter=0;" edge="1" parent="1" source="uBkspF1C4MyCDrgNjVe--41" target="uBkspF1C4MyCDrgNjVe--40">
          <mxGeometry width="50" height="50" relative="1" as="geometry">
            <mxPoint x="450" y="400" as="sourcePoint" />
            <mxPoint x="404.1399999999999" y="243.75" as="targetPoint" />
            <Array as="points" />
          </mxGeometry>
        </mxCell>
      </root>
    </mxGraphModel>
  </diagram>
</mxfile>
